<svg width="146" height="25" viewBox="0 0 146 25" fill="none" xmlns="http://www.w3.org/2000/svg">
<path d="M3.62891 12.8086L3.61719 17.7422C3.61719 18.0859 3.51953 18.4023 3.32422 18.6914C3.05078 19.0898 2.65234 19.2891 2.12891 19.2891C1.51172 19.2891 1.02734 19.0391 0.675781 18.5391C0.402344 18.1484 0.265625 17.7305 0.265625 17.2852C0.265625 15.5508 0.320312 12.9453 0.429688 9.46875C0.539062 5.99219 0.59375 3.38672 0.59375 1.65234C0.59375 1.21484 0.75 0.839844 1.0625 0.527344C1.375 0.214844 1.76562 0.0585938 2.23438 0.0585938C2.70312 0.0585938 3.08984 0.214844 3.39453 0.527344C3.70703 0.839844 3.86328 1.21484 3.86328 1.65234C3.86328 2.35547 3.82812 3.30469 3.75781 4.5C3.67188 5.89062 3.62109 6.83984 3.60547 7.34766C4.15234 6.83203 6.17969 4.66016 9.6875 0.832031C10.0469 0.441406 10.4609 0.246094 10.9297 0.246094C11.375 0.246094 11.7617 0.402344 12.0898 0.714844C12.4258 1.02734 12.5938 1.40625 12.5938 1.85156C12.5938 2.33594 11.6641 3.59375 9.80469 5.625C8.42969 7.11719 6.98047 8.58984 5.45703 10.043C6.30859 10.8477 7.16406 11.6523 8.02344 12.457C9.02344 13.3789 9.92188 14.1367 10.7188 14.7305C11.1172 15.0195 11.5469 15.2383 12.0078 15.3867C12.8438 15.6523 13.2617 16.1641 13.2617 16.9219C13.2617 17.2578 13.1562 17.582 12.9453 17.8945C12.6562 18.3164 12.2539 18.5273 11.7383 18.5273C10.6211 18.5273 9.17188 17.7969 7.39062 16.3359C6.85938 15.8984 5.60547 14.7227 3.62891 12.8086ZM24.9805 18.7734C24.6211 18.7734 24.0508 18.3828 23.2695 17.6016C22.5508 17.9453 21.918 18.2031 21.3711 18.375C20.8242 18.5547 20.3594 18.6445 19.9766 18.6445C18.0938 18.6445 16.6797 18.1406 15.7344 17.1328C14.7969 16.125 14.3281 14.6172 14.3281 12.6094C14.3281 10.7266 15.0234 9.11719 16.4141 7.78125C17.8047 6.4375 19.4688 5.76562 21.4062 5.76562C22.1484 5.76562 23.0078 5.97656 23.9844 6.39844C25.1641 6.90625 25.7539 7.49609 25.7539 8.16797C25.7539 8.44922 25.6641 8.69531 25.4844 8.90625C25.4062 9.21875 25.3438 9.61328 25.2969 10.0898C25.2578 10.5586 25.2383 11.1094 25.2383 11.7422C25.2383 13.2344 25.3438 14.3086 25.5547 14.9648C25.5781 15.0352 25.7578 15.4414 26.0938 16.1836C26.3984 16.8555 26.5508 17.2383 26.5508 17.332C26.5508 17.7461 26.3906 18.0898 26.0703 18.3633C25.7578 18.6367 25.3945 18.7734 24.9805 18.7734ZM22.0742 10.7344C22.0742 10.4844 22.0898 10.1992 22.1211 9.87891C22.1602 9.55078 22.2148 9.1875 22.2852 8.78906C22.1289 8.71094 21.9883 8.65625 21.8633 8.625C21.7461 8.58594 21.6445 8.56641 21.5586 8.56641C20.4961 8.56641 19.5664 8.98438 18.7695 9.82031C17.9727 10.6484 17.5742 11.6094 17.5742 12.7031C17.5742 13.75 17.7617 14.5391 18.1367 15.0703C18.5117 15.5938 19.0742 15.8555 19.8242 15.8555C20.3086 15.8555 20.7656 15.7773 21.1953 15.6211C21.6328 15.457 22.043 15.2188 22.4258 14.9062C22.1914 13.0469 22.0742 11.6562 22.0742 10.7344ZM38.0234 9.55078C37.9531 10.7461 37.4102 11.3438 36.3945 11.3438C35.4102 11.3438 34.918 10.8359 34.918 9.82031L34.8594 8.63672C33.1016 8.91797 31.8438 9.82031 31.0859 11.3438L31.0977 17.2383C31.0977 17.6836 30.9453 18.0508 30.6406 18.3398C30.3359 18.6367 29.9492 18.7852 29.4805 18.7852C28.9961 18.7852 28.6211 18.6289 28.3555 18.3164C28.1055 18.0352 27.9805 17.6758 27.9805 17.2383V9.5625C27.9805 9.32031 27.9883 8.96094 28.0039 8.48438C28.0195 8 28.0273 7.63672 28.0273 7.39453C28.0273 6.95703 28.1562 6.59375 28.4141 6.30469C28.6797 6.00781 29.0547 5.85938 29.5391 5.85938C30.4062 5.85938 30.9219 6.30469 31.0859 7.19531C32.4688 6.16406 34.0039 5.64844 35.6914 5.64844C37.2539 5.64844 38.0352 6.6875 38.0352 8.76562C38.0352 9.16406 38.0312 9.42578 38.0234 9.55078ZM50 11.2266C50 11.75 50.0039 12.5391 50.0117 13.5938C50.0195 14.6484 50.0234 15.4375 50.0234 15.9609C50.0234 16.125 50.0352 16.3711 50.0586 16.6992C50.0898 17.0195 50.1055 17.2617 50.1055 17.4258C50.1055 17.8633 49.9453 18.2227 49.625 18.5039C49.3125 18.793 48.9258 18.9375 48.4648 18.9375C47.8164 18.9375 47.3438 18.6445 47.0469 18.0586C46.0469 18.4258 45.0117 18.6094 43.9414 18.6094C42.832 18.6094 41.8984 18.375 41.1406 17.9062C40.2891 17.3672 39.7812 16.582 39.6172 15.5508C39.3125 13.5977 39.1602 11.8516 39.1602 10.3125C39.1602 9.29688 39.2773 8.13672 39.5117 6.83203C39.668 5.94922 40.1953 5.50781 41.0938 5.50781C41.5469 5.50781 41.9336 5.65234 42.2539 5.94141C42.5742 6.22266 42.7344 6.58203 42.7344 7.01953C42.7344 7.36328 42.6758 7.90234 42.5586 8.63672C42.4492 9.37109 42.3945 9.92969 42.3945 10.3125C42.3945 11.4141 42.4297 12.3789 42.5 13.207C42.5781 14.0273 42.6914 14.707 42.8398 15.2461C43.0352 15.332 43.2227 15.3984 43.4023 15.4453C43.5898 15.4922 43.7695 15.5156 43.9414 15.5156C44.8086 15.5156 45.7617 15.3906 46.8008 15.1406C46.8008 14.5391 46.7969 13.8555 46.7891 13.0898C46.7734 12.1758 46.7656 11.5195 46.7656 11.1211C46.7656 9.51953 46.8398 8.13672 46.9883 6.97266C47.1055 6.04297 47.6367 5.57812 48.582 5.57812C49.043 5.57812 49.4375 5.72266 49.7656 6.01172C50.0938 6.30078 50.2461 6.66406 50.2227 7.10156C50.0742 10.0781 50 11.4531 50 11.2266ZM57.6406 18.6914C56.9688 18.6914 56.2617 18.6133 55.5195 18.457L55.5078 23.2383C55.5078 23.6914 55.3555 24.0664 55.0508 24.3633C54.7461 24.6602 54.3594 24.8086 53.8906 24.8086C53.4219 24.8086 53.0352 24.6602 52.7305 24.3633C52.4258 24.0664 52.2734 23.6914 52.2734 23.2383C52.2734 22.8711 52.2812 21.4141 52.2969 18.8672C52.3125 16.9766 52.3125 15.4336 52.2969 14.2383C52.2734 12.5508 52.2188 11.0977 52.1328 9.87891C52.0156 8.19922 51.957 7.42969 51.957 7.57031C51.957 6.92188 52.1016 6.36719 52.3906 5.90625C52.7266 5.38281 53.1797 5.12109 53.75 5.12109C54.1875 5.12109 54.5547 5.26953 54.8516 5.56641C55.1484 5.86328 55.2969 6.21875 55.2969 6.63281L55.2852 6.75C55.8086 6.45312 56.332 6.23438 56.8555 6.09375C57.3867 5.94531 57.918 5.87109 58.4492 5.87109C60.2461 5.87109 61.5586 6.63281 62.3867 8.15625C63.0039 9.30469 63.3125 10.793 63.3125 12.6211C63.3125 14.332 62.8242 15.75 61.8477 16.875C60.8008 18.0859 59.3984 18.6914 57.6406 18.6914ZM58.4492 9C57.957 9 57.457 9.11719 56.9492 9.35156C56.4414 9.57812 55.9297 9.92188 55.4141 10.3828C55.5078 11.9922 55.5547 13.6055 55.5547 15.2227C56.25 15.4492 56.9453 15.5625 57.6406 15.5625C58.4453 15.5625 59.0625 15.2773 59.4922 14.707C59.8828 14.1914 60.0781 13.4961 60.0781 12.6211C60.0781 11.5664 60.0312 10.8359 59.9375 10.4297C59.7109 9.47656 59.2148 9 58.4492 9ZM70.4844 18.6914C69.8125 18.6914 69.1055 18.6133 68.3633 18.457L68.3516 23.2383C68.3516 23.6914 68.1992 24.0664 67.8945 24.3633C67.5898 24.6602 67.2031 24.8086 66.7344 24.8086C66.2656 24.8086 65.8789 24.6602 65.5742 24.3633C65.2695 24.0664 65.1172 23.6914 65.1172 23.2383C65.1172 22.8711 65.125 21.4141 65.1406 18.8672C65.1562 16.9766 65.1562 15.4336 65.1406 14.2383C65.1172 12.5508 65.0625 11.0977 64.9766 9.87891C64.8594 8.19922 64.8008 7.42969 64.8008 7.57031C64.8008 6.92188 64.9453 6.36719 65.2344 5.90625C65.5703 5.38281 66.0234 5.12109 66.5938 5.12109C67.0312 5.12109 67.3984 5.26953 67.6953 5.56641C67.9922 5.86328 68.1406 6.21875 68.1406 6.63281L68.1289 6.75C68.6523 6.45312 69.1758 6.23438 69.6992 6.09375C70.2305 5.94531 70.7617 5.87109 71.293 5.87109C73.0898 5.87109 74.4023 6.63281 75.2305 8.15625C75.8477 9.30469 76.1562 10.793 76.1562 12.6211C76.1562 14.332 75.668 15.75 74.6914 16.875C73.6445 18.0859 72.2422 18.6914 70.4844 18.6914ZM71.293 9C70.8008 9 70.3008 9.11719 69.793 9.35156C69.2852 9.57812 68.7734 9.92188 68.2578 10.3828C68.3516 11.9922 68.3984 13.6055 68.3984 15.2227C69.0938 15.4492 69.7891 15.5625 70.4844 15.5625C71.2891 15.5625 71.9062 15.2773 72.3359 14.707C72.7266 14.1914 72.9219 13.4961 72.9219 12.6211C72.9219 11.5664 72.875 10.8359 72.7812 10.4297C72.5547 9.47656 72.0586 9 71.293 9ZM88.1797 11.2266C88.1797 11.75 88.1836 12.5391 88.1914 13.5938C88.1992 14.6484 88.2031 15.4375 88.2031 15.9609C88.2031 16.125 88.2148 16.3711 88.2383 16.6992C88.2695 17.0195 88.2852 17.2617 88.2852 17.4258C88.2852 17.8633 88.125 18.2227 87.8047 18.5039C87.4922 18.793 87.1055 18.9375 86.6445 18.9375C85.9961 18.9375 85.5234 18.6445 85.2266 18.0586C84.2266 18.4258 83.1914 18.6094 82.1211 18.6094C81.0117 18.6094 80.0781 18.375 79.3203 17.9062C78.4688 17.3672 77.9609 16.582 77.7969 15.5508C77.4922 13.5977 77.3398 11.8516 77.3398 10.3125C77.3398 9.29688 77.457 8.13672 77.6914 6.83203C77.8477 5.94922 78.375 5.50781 79.2734 5.50781C79.7266 5.50781 80.1133 5.65234 80.4336 5.94141C80.7539 6.22266 80.9141 6.58203 80.9141 7.01953C80.9141 7.36328 80.8555 7.90234 80.7383 8.63672C80.6289 9.37109 80.5742 9.92969 80.5742 10.3125C80.5742 11.4141 80.6094 12.3789 80.6797 13.207C80.7578 14.0273 80.8711 14.707 81.0195 15.2461C81.2148 15.332 81.4023 15.3984 81.582 15.4453C81.7695 15.4922 81.9492 15.5156 82.1211 15.5156C82.9883 15.5156 83.9414 15.3906 84.9805 15.1406C84.9805 14.5391 84.9766 13.8555 84.9688 13.0898C84.9531 12.1758 84.9453 11.5195 84.9453 11.1211C84.9453 9.51953 85.0195 8.13672 85.168 6.97266C85.2852 6.04297 85.8164 5.57812 86.7617 5.57812C87.2227 5.57812 87.6172 5.72266 87.9453 6.01172C88.2734 6.30078 88.4258 6.66406 88.4023 7.10156C88.2539 10.0781 88.1797 11.4531 88.1797 11.2266ZM98.6562 9.42188C97.8828 9.42188 97.418 9.09766 97.2617 8.44922C96.9492 8.39453 96.6289 8.36719 96.3008 8.36719C94.418 8.36719 93.4766 8.625 93.4766 9.14062C93.4766 9.44531 94.043 9.85547 95.1758 10.3711C96.7227 11.082 97.7695 11.6367 98.3164 12.0352C99.4492 12.8555 100.016 13.7812 100.016 14.8125C100.016 16.1562 99.3906 17.1758 98.1406 17.8711C97.1328 18.4258 95.8945 18.7031 94.4258 18.7031C93.3867 18.7031 92.4375 18.543 91.5781 18.2227C90.4062 17.7852 89.8203 17.1406 89.8203 16.2891C89.8203 15.5078 90.2852 15.1172 91.2148 15.1172C91.5742 15.1172 92.0938 15.2305 92.7734 15.457C93.4531 15.6836 93.9766 15.7969 94.3438 15.7969C95.9297 15.7969 96.7266 15.4766 96.7344 14.8359C96.7344 14.4375 96.1836 13.9961 95.082 13.5117C93.4727 12.8008 92.4414 12.2891 91.9883 11.9766C90.8867 11.2031 90.3359 10.2617 90.3359 9.15234C90.3359 7.58203 91.168 6.52344 92.832 5.97656C93.8086 5.65625 95.293 5.49609 97.2852 5.49609C98.0664 5.49609 98.6445 5.59766 99.0195 5.80078C99.5352 6.07422 99.793 6.57812 99.793 7.3125C99.793 8.71875 99.4141 9.42188 98.6562 9.42188ZM112.215 18.7734C111.855 18.7734 111.285 18.3828 110.504 17.6016C109.785 17.9453 109.152 18.2031 108.605 18.375C108.059 18.5547 107.594 18.6445 107.211 18.6445C105.328 18.6445 103.914 18.1406 102.969 17.1328C102.031 16.125 101.562 14.6172 101.562 12.6094C101.562 10.7266 102.258 9.11719 103.648 7.78125C105.039 6.4375 106.703 5.76562 108.641 5.76562C109.383 5.76562 110.242 5.97656 111.219 6.39844C112.398 6.90625 112.988 7.49609 112.988 8.16797C112.988 8.44922 112.898 8.69531 112.719 8.90625C112.641 9.21875 112.578 9.61328 112.531 10.0898C112.492 10.5586 112.473 11.1094 112.473 11.7422C112.473 13.2344 112.578 14.3086 112.789 14.9648C112.812 15.0352 112.992 15.4414 113.328 16.1836C113.633 16.8555 113.785 17.2383 113.785 17.332C113.785 17.7461 113.625 18.0898 113.305 18.3633C112.992 18.6367 112.629 18.7734 112.215 18.7734ZM109.309 10.7344C109.309 10.4844 109.324 10.1992 109.355 9.87891C109.395 9.55078 109.449 9.1875 109.52 8.78906C109.363 8.71094 109.223 8.65625 109.098 8.625C108.98 8.58594 108.879 8.56641 108.793 8.56641C107.73 8.56641 106.801 8.98438 106.004 9.82031C105.207 10.6484 104.809 11.6094 104.809 12.7031C104.809 13.75 104.996 14.5391 105.371 15.0703C105.746 15.5938 106.309 15.8555 107.059 15.8555C107.543 15.8555 108 15.7773 108.43 15.6211C108.867 15.457 109.277 15.2188 109.66 14.9062C109.426 13.0469 109.309 11.6562 109.309 10.7344ZM118.473 7.62891C119.652 6.26172 120.77 5.57812 121.824 5.57812C123.027 5.57812 123.91 6.03516 124.473 6.94922C124.949 6.52734 125.477 6.21094 126.055 6C126.633 5.78906 127.258 5.68359 127.93 5.68359C129.461 5.68359 130.5 6.44531 131.047 7.96875C131.156 8.28125 131.324 9.33984 131.551 11.1445C131.77 12.4102 132.051 14.5195 132.395 17.4727C132.426 17.918 132.273 18.2852 131.938 18.5742C131.602 18.8633 131.207 19.0078 130.754 19.0078C129.855 19.0078 129.328 18.5625 129.172 17.6719C129.031 16.8672 128.887 15.7305 128.738 14.2617C128.582 12.6523 128.453 11.5117 128.352 10.8398C128.141 9.44141 127.871 8.74219 127.543 8.74219C127.363 8.74219 126.953 8.92188 126.312 9.28125C125.672 9.64062 125.203 9.94922 124.906 10.207C124.906 11.0977 125.012 12.3789 125.223 14.0508C125.441 15.7617 125.551 17.043 125.551 17.8945C125.551 18.3398 125.398 18.7109 125.094 19.0078C124.789 19.3047 124.402 19.4531 123.934 19.4531C123.465 19.4531 123.078 19.3047 122.773 19.0078C122.469 18.7109 122.316 18.3398 122.316 17.8945C122.316 17.0039 122.219 15.6953 122.023 13.9688C121.836 12.2344 121.742 10.9219 121.742 10.0312C121.742 9.53125 121.699 9.13281 121.613 8.83594C120.707 9.35938 119.797 10.2305 118.883 11.4492C118.844 11.5039 118.777 11.5859 118.684 11.6953C118.652 13.2734 118.637 14.5117 118.637 15.4102C118.637 15.6289 118.629 15.9258 118.613 16.3008C118.598 16.668 118.59 16.9414 118.59 17.1211C118.59 17.543 118.418 17.875 118.074 18.1172C117.762 18.3438 117.375 18.457 116.914 18.457C116.25 18.457 115.801 18.168 115.566 17.5898C115.402 17.1992 115.32 16.5781 115.32 15.7266V11.3672C115.32 10.9766 115.305 10.4062 115.273 9.65625C115.242 8.89844 115.227 8.32422 115.227 7.93359C115.227 7.23828 115.352 6.60938 115.602 6.04688C115.906 5.34375 116.336 4.99219 116.891 4.99219C117.328 4.99219 117.719 5.16406 118.062 5.50781C118.406 5.84375 118.578 6.21484 118.578 6.62109C118.578 6.45703 118.543 6.79297 118.473 7.62891ZM145.742 8.09766C144.891 9.87109 143.543 12.6562 141.699 16.4531C140.699 18.4922 139.938 20.1836 139.414 21.5273C139.25 22.0117 138.992 22.7305 138.641 23.6836C138.359 24.418 137.859 24.7852 137.141 24.7852C136.695 24.7852 136.305 24.6406 135.969 24.3516C135.633 24.0625 135.465 23.6992 135.465 23.2617C135.465 22.5352 136.293 20.3828 137.949 16.8047C137.09 15.1094 135.727 12.6133 133.859 9.31641C133.672 9.01953 133.48 8.71875 133.285 8.41406C133.074 8.05469 132.969 7.72656 132.969 7.42969C132.969 7.00781 133.137 6.63672 133.473 6.31641C133.809 5.99609 134.195 5.83594 134.633 5.83594C135.148 5.83594 135.551 6.02734 135.84 6.41016C136.949 7.88672 138.242 10.1094 139.719 13.0781C140.555 11.2266 141.062 10.1094 141.242 9.72656C141.797 8.5625 142.34 7.53906 142.871 6.65625C143.207 6.09375 143.668 5.8125 144.254 5.8125C144.691 5.8125 145.082 5.96094 145.426 6.25781C145.77 6.55469 145.941 6.91797 145.941 7.34766C145.941 7.57422 145.875 7.82422 145.742 8.09766Z" fill="currentColor"/>
</svg>
