<svg width="142" height="25" viewBox="0 0 142 25" fill="none" xmlns="http://www.w3.org/2000/svg">
<path d="M11.5117 18.4805C10.3242 18.4805 8.63281 17.4375 6.4375 15.3516L2.93359 11.8242V11.9883L2.92188 18.1289C2.92188 18.9023 2.58203 19.2891 1.90234 19.2891C1.45703 19.2891 1.10156 19.0938 0.835938 18.7031C0.617188 18.3828 0.507812 18.0352 0.507812 17.6602C0.507812 15.832 0.5625 13.0977 0.671875 9.45703C0.78125 5.81641 0.835938 3.08594 0.835938 1.26562C0.835938 0.929688 0.945312 0.644531 1.16406 0.410156C1.39062 0.175781 1.66797 0.0585938 1.99609 0.0585938C2.33203 0.0585938 2.60938 0.175781 2.82812 0.410156C3.05469 0.644531 3.16797 0.929688 3.16797 1.26562C3.16797 2.02344 3.12109 3.20312 3.02734 4.80469C2.93359 6.35156 2.89062 7.53516 2.89844 8.35547C3.94531 7.36328 5.12891 6.11719 6.44922 4.61719L9.8125 0.714844C10.0781 0.410156 10.375 0.257812 10.7031 0.257812C11.0156 0.257812 11.293 0.375 11.5352 0.609375C11.7773 0.84375 11.8984 1.12891 11.8984 1.46484C11.8984 1.98047 10.8906 3.35547 8.875 5.58984C7.48438 7.11328 6.04688 8.60547 4.5625 10.0664C5.5 11.0508 6.96875 12.4648 8.96875 14.3086L10.1992 15.3398C10.6445 15.6836 11.125 15.9414 11.6406 16.1133C12.2578 16.3164 12.5664 16.7031 12.5664 17.2734C12.5664 17.5391 12.4844 17.793 12.3203 18.0352C12.1172 18.332 11.8477 18.4805 11.5117 18.4805ZM23.4531 18.7734C23.3047 18.7734 23.0352 18.6016 22.6445 18.2578C22.293 17.9375 22.0312 17.6523 21.8594 17.4023C21.1094 17.8086 20.4492 18.1133 19.8789 18.3164C19.3086 18.5273 18.832 18.6328 18.4492 18.6328C16.6211 18.6328 15.2891 18.1172 14.4531 17.0859C13.6641 16.1172 13.2695 14.6328 13.2695 12.6328C13.2695 10.7422 13.918 9.125 15.2148 7.78125C16.5195 6.4375 18.0742 5.76562 19.8789 5.76562C20.5586 5.76562 21.3203 5.94141 22.1641 6.29297C23.2266 6.73047 23.7578 7.25781 23.7578 7.875C23.7578 8.08594 23.6797 8.27344 23.5234 8.4375C23.4453 8.73438 23.3828 9.22266 23.3359 9.90234C23.2969 10.582 23.2734 11.4531 23.2656 12.5156C23.2578 13.4844 23.3242 14.25 23.4648 14.8125C23.543 15.1562 23.7891 15.8438 24.2031 16.875C24.2578 17.0156 24.3477 17.2227 24.4727 17.4961L24.543 17.6953C24.543 18.0078 24.4336 18.2656 24.2148 18.4688C23.9961 18.6719 23.7422 18.7734 23.4531 18.7734ZM21.0156 10.6289C21.0156 10.293 21.0352 9.92969 21.0742 9.53906C21.1211 9.14062 21.1875 8.71875 21.2734 8.27344C20.9844 8.125 20.7344 8.01562 20.5234 7.94531C20.3203 7.875 20.1562 7.83984 20.0312 7.83984C18.8203 7.83984 17.7734 8.33594 16.8906 9.32812C16.0156 10.3125 15.5781 11.4492 15.5781 12.7383C15.5781 14.0195 15.8047 14.9805 16.2578 15.6211C16.7109 16.2617 17.3906 16.582 18.2969 16.582C19.0469 16.582 19.6836 16.4453 20.207 16.1719C20.4883 16.0234 20.8828 15.7266 21.3906 15.2812C21.1406 13.2109 21.0156 11.6602 21.0156 10.6289ZM35.6992 9.33984C35.6445 10.3164 35.2539 10.8047 34.5273 10.8047C33.8555 10.8047 33.5195 10.418 33.5195 9.64453C33.5195 9.49609 33.5078 9.22266 33.4844 8.82422L33.4492 7.83984C32.2148 7.98828 31.2266 8.33594 30.4844 8.88281C29.7891 9.39062 29.2109 10.1562 28.75 11.1797L28.7734 17.6016C28.7734 18.3906 28.3867 18.7852 27.6133 18.7852C26.9258 18.7852 26.582 18.3906 26.582 17.6016V9.375C26.582 9.11719 26.5898 8.73047 26.6055 8.21484C26.6289 7.69922 26.6406 7.3125 26.6406 7.05469C26.6406 6.26562 26.9844 5.87109 27.6719 5.87109C28.4375 5.87109 28.8242 6.51953 28.832 7.81641C30.332 6.37109 31.9961 5.64844 33.8242 5.64844C34.457 5.64844 34.9297 5.88672 35.2422 6.36328C35.5547 6.83984 35.7109 7.55859 35.7109 8.51953C35.7109 8.92578 35.707 9.19922 35.6992 9.33984ZM47.6758 11.1562C47.6758 11.7188 47.6797 12.5625 47.6875 13.6875C47.6953 14.8125 47.6992 15.6562 47.6992 16.2188C47.6992 16.3906 47.7109 16.6523 47.7344 17.0039C47.7656 17.3555 47.7812 17.6172 47.7812 17.7891C47.7812 18.125 47.668 18.3984 47.4414 18.6094C47.2148 18.8281 46.9375 18.9375 46.6094 18.9375C46.0078 18.9375 45.625 18.5664 45.4609 17.8242C44.4844 18.332 43.3594 18.5859 42.0859 18.5859C41.0625 18.5859 40.2148 18.3594 39.543 17.9062C38.8008 17.4062 38.3594 16.6758 38.2188 15.7148C37.9141 13.6445 37.7617 11.8008 37.7617 10.1836C37.7617 9.11328 37.8789 7.89453 38.1133 6.52734C38.2227 5.84766 38.5938 5.50781 39.2266 5.50781C39.5625 5.50781 39.8438 5.61719 40.0703 5.83594C40.2969 6.04688 40.4102 6.32031 40.4102 6.65625C40.4102 7.01562 40.3516 7.58984 40.2344 8.37891C40.125 9.16797 40.0703 9.76953 40.0703 10.1836C40.0703 11.4883 40.1133 12.6055 40.1992 13.5352C40.2852 14.4648 40.4141 15.2109 40.5859 15.7734C40.8438 15.9141 41.0977 16.0234 41.3477 16.1016C41.5977 16.1719 41.8438 16.207 42.0859 16.207C43.1328 16.207 44.2383 16.0391 45.4023 15.7031L45.3906 13.3242L45.3672 11.0508C45.3672 9.36328 45.4414 7.89844 45.5898 6.65625C45.6758 5.9375 46.0547 5.57812 46.7266 5.57812C47.0625 5.57812 47.3438 5.6875 47.5703 5.90625C47.7969 6.125 47.9023 6.39844 47.8867 6.72656L47.6758 11.1562ZM55.5859 18.4102C54.8047 18.4102 53.9453 18.2852 53.0078 18.0352L52.9844 23.6367C52.9844 23.9805 52.875 24.2617 52.6562 24.4805C52.4453 24.6992 52.1719 24.8086 51.8359 24.8086C51.5 24.8086 51.2227 24.6992 51.0039 24.4805C50.793 24.2617 50.6875 23.9805 50.6875 23.6367L50.7227 18.9492V14.2734C50.6992 12.5625 50.6406 11.0039 50.5469 9.59766L50.3711 7.21875C50.3711 6.66406 50.4727 6.19531 50.6758 5.8125C50.9102 5.35156 51.25 5.12109 51.6953 5.12109C52 5.12109 52.2539 5.23047 52.457 5.44922C52.668 5.66016 52.7734 5.92188 52.7734 6.23438C52.7734 6.30469 52.7617 6.43359 52.7383 6.62109C52.6992 6.86328 52.6719 7.08594 52.6562 7.28906C53.3281 6.82812 53.9766 6.48438 54.6016 6.25781C55.2266 6.02344 55.8242 5.90625 56.3945 5.90625C57.9961 5.90625 59.168 6.61719 59.9102 8.03906C60.4961 9.16406 60.7891 10.6523 60.7891 12.5039C60.7891 14.1914 60.3359 15.582 59.4297 16.6758C58.4688 17.832 57.1875 18.4102 55.5859 18.4102ZM56.3945 8.25C55.6758 8.25 55.0273 8.41016 54.4492 8.73047C54.0352 8.95703 53.5117 9.37109 52.8789 9.97266C52.9805 11.7461 53.0312 13.6094 53.0312 15.5625C53.8828 15.8906 54.7344 16.0547 55.5859 16.0547C56.5625 16.0547 57.3086 15.6914 57.8242 14.9648C58.2695 14.332 58.4922 13.5117 58.4922 12.5039C58.4922 11.082 58.3164 10.0195 57.9648 9.31641C57.6211 8.60547 57.0977 8.25 56.3945 8.25ZM68.4297 18.4102C67.6484 18.4102 66.7891 18.2852 65.8516 18.0352L65.8281 23.6367C65.8281 23.9805 65.7188 24.2617 65.5 24.4805C65.2891 24.6992 65.0156 24.8086 64.6797 24.8086C64.3438 24.8086 64.0664 24.6992 63.8477 24.4805C63.6367 24.2617 63.5312 23.9805 63.5312 23.6367L63.5664 18.9492V14.2734C63.543 12.5625 63.4844 11.0039 63.3906 9.59766L63.2148 7.21875C63.2148 6.66406 63.3164 6.19531 63.5195 5.8125C63.7539 5.35156 64.0938 5.12109 64.5391 5.12109C64.8438 5.12109 65.0977 5.23047 65.3008 5.44922C65.5117 5.66016 65.6172 5.92188 65.6172 6.23438C65.6172 6.30469 65.6055 6.43359 65.582 6.62109C65.543 6.86328 65.5156 7.08594 65.5 7.28906C66.1719 6.82812 66.8203 6.48438 67.4453 6.25781C68.0703 6.02344 68.668 5.90625 69.2383 5.90625C70.8398 5.90625 72.0117 6.61719 72.7539 8.03906C73.3398 9.16406 73.6328 10.6523 73.6328 12.5039C73.6328 14.1914 73.1797 15.582 72.2734 16.6758C71.3125 17.832 70.0312 18.4102 68.4297 18.4102ZM69.2383 8.25C68.5195 8.25 67.8711 8.41016 67.293 8.73047C66.8789 8.95703 66.3555 9.37109 65.7227 9.97266C65.8242 11.7461 65.875 13.6094 65.875 15.5625C66.7266 15.8906 67.5781 16.0547 68.4297 16.0547C69.4062 16.0547 70.1523 15.6914 70.668 14.9648C71.1133 14.332 71.3359 13.5117 71.3359 12.5039C71.3359 11.082 71.1602 10.0195 70.8086 9.31641C70.4648 8.60547 69.9414 8.25 69.2383 8.25ZM85.8555 11.1562C85.8555 11.7188 85.8594 12.5625 85.8672 13.6875C85.875 14.8125 85.8789 15.6562 85.8789 16.2188C85.8789 16.3906 85.8906 16.6523 85.9141 17.0039C85.9453 17.3555 85.9609 17.6172 85.9609 17.7891C85.9609 18.125 85.8477 18.3984 85.6211 18.6094C85.3945 18.8281 85.1172 18.9375 84.7891 18.9375C84.1875 18.9375 83.8047 18.5664 83.6406 17.8242C82.6641 18.332 81.5391 18.5859 80.2656 18.5859C79.2422 18.5859 78.3945 18.3594 77.7227 17.9062C76.9805 17.4062 76.5391 16.6758 76.3984 15.7148C76.0938 13.6445 75.9414 11.8008 75.9414 10.1836C75.9414 9.11328 76.0586 7.89453 76.293 6.52734C76.4023 5.84766 76.7734 5.50781 77.4062 5.50781C77.7422 5.50781 78.0234 5.61719 78.25 5.83594C78.4766 6.04688 78.5898 6.32031 78.5898 6.65625C78.5898 7.01562 78.5312 7.58984 78.4141 8.37891C78.3047 9.16797 78.25 9.76953 78.25 10.1836C78.25 11.4883 78.293 12.6055 78.3789 13.5352C78.4648 14.4648 78.5938 15.2109 78.7656 15.7734C79.0234 15.9141 79.2773 16.0234 79.5273 16.1016C79.7773 16.1719 80.0234 16.207 80.2656 16.207C81.3125 16.207 82.418 16.0391 83.582 15.7031L83.5703 13.3242L83.5469 11.0508C83.5469 9.36328 83.6211 7.89844 83.7695 6.65625C83.8555 5.9375 84.2344 5.57812 84.9062 5.57812C85.2422 5.57812 85.5234 5.6875 85.75 5.90625C85.9766 6.125 86.082 6.39844 86.0664 6.72656L85.8555 11.1562ZM96.6953 8.97656C96.2656 8.97656 95.9648 8.83203 95.793 8.54297C95.6758 8.33984 95.5742 7.91797 95.4883 7.27734C94.9023 7.42578 94 7.69922 92.7812 8.09766C91.5234 8.59766 90.8906 9.21484 90.8828 9.94922C91.1172 10.0352 91.3477 10.0977 91.5742 10.1367C93.3711 10.457 94.707 10.8984 95.582 11.4609C96.8555 12.2812 97.4922 13.4688 97.4922 15.0234C97.4922 16.2969 96.9414 17.2578 95.8398 17.9062C94.9258 18.4375 93.7695 18.7031 92.3711 18.7031C91.3477 18.7031 90.3711 18.5312 89.4414 18.1875C88.2383 17.75 87.6367 17.1406 87.6367 16.3594C87.6367 16.0469 87.7578 15.7734 88 15.5391C88.25 15.3047 88.5312 15.1875 88.8438 15.1875C89.0859 15.1875 89.3984 15.375 89.7812 15.75C89.9688 15.9297 90.3906 16.0781 91.0469 16.1953C91.5703 16.2891 92.0117 16.3359 92.3711 16.3359C93.0273 16.3359 93.6055 16.2578 94.1055 16.1016C94.832 15.875 95.1953 15.5156 95.1953 15.0234C95.1953 13.9609 94.4531 13.2422 92.9688 12.8672L91.75 12.5977C90.7109 12.3711 89.9727 12.1055 89.5352 11.8008C88.9023 11.3633 88.5859 10.7031 88.5859 9.82031C88.5859 8.1875 89.3555 7.02344 90.8945 6.32812C91.3633 6.11719 92.1133 5.86719 93.1445 5.57812C94.1758 5.28125 94.9141 5.03125 95.3594 4.82812C95.6797 4.6875 96.0273 4.61719 96.4023 4.61719C96.7383 4.61719 97.0117 4.72656 97.2227 4.94531C97.4414 5.16406 97.5508 5.44922 97.5508 5.80078C97.5508 6.02734 97.5977 6.35938 97.6914 6.79688C97.793 7.23438 97.8438 7.56641 97.8438 7.79297C97.8438 8.14453 97.7344 8.42969 97.5156 8.64844C97.3047 8.86719 97.0312 8.97656 96.6953 8.97656ZM109.633 18.7734C109.484 18.7734 109.215 18.6016 108.824 18.2578C108.473 17.9375 108.211 17.6523 108.039 17.4023C107.289 17.8086 106.629 18.1133 106.059 18.3164C105.488 18.5273 105.012 18.6328 104.629 18.6328C102.801 18.6328 101.469 18.1172 100.633 17.0859C99.8438 16.1172 99.4492 14.6328 99.4492 12.6328C99.4492 10.7422 100.098 9.125 101.395 7.78125C102.699 6.4375 104.254 5.76562 106.059 5.76562C106.738 5.76562 107.5 5.94141 108.344 6.29297C109.406 6.73047 109.938 7.25781 109.938 7.875C109.938 8.08594 109.859 8.27344 109.703 8.4375C109.625 8.73438 109.562 9.22266 109.516 9.90234C109.477 10.582 109.453 11.4531 109.445 12.5156C109.438 13.4844 109.504 14.25 109.645 14.8125C109.723 15.1562 109.969 15.8438 110.383 16.875C110.438 17.0156 110.527 17.2227 110.652 17.4961L110.723 17.6953C110.723 18.0078 110.613 18.2656 110.395 18.4688C110.176 18.6719 109.922 18.7734 109.633 18.7734ZM107.195 10.6289C107.195 10.293 107.215 9.92969 107.254 9.53906C107.301 9.14062 107.367 8.71875 107.453 8.27344C107.164 8.125 106.914 8.01562 106.703 7.94531C106.5 7.875 106.336 7.83984 106.211 7.83984C105 7.83984 103.953 8.33594 103.07 9.32812C102.195 10.3125 101.758 11.4492 101.758 12.7383C101.758 14.0195 101.984 14.9805 102.438 15.6211C102.891 16.2617 103.57 16.582 104.477 16.582C105.227 16.582 105.863 16.4453 106.387 16.1719C106.668 16.0234 107.062 15.7266 107.57 15.2812C107.32 13.2109 107.195 11.6602 107.195 10.6289ZM127.645 18.9727C127.004 18.9727 126.629 18.6328 126.52 17.9531C126.379 17.0938 126.238 15.8828 126.098 14.3203L125.699 10.6875C125.621 10.1484 125.488 9.62109 125.301 9.10547C125.035 8.40234 124.746 8.05078 124.434 8.05078C124.145 8.05078 123.605 8.29688 122.816 8.78906C122.066 9.24219 121.574 9.60547 121.34 9.87891C121.332 10.6133 121.352 11.3477 121.398 12.082L121.75 15.2109C121.898 16.4453 121.973 17.4648 121.973 18.2695C121.973 18.6133 121.863 18.8945 121.645 19.1133C121.434 19.3398 121.16 19.4531 120.824 19.4531C120.488 19.4531 120.211 19.3398 119.992 19.1133C119.781 18.8945 119.676 18.6133 119.676 18.2695C119.676 17.3242 119.578 15.9297 119.383 14.0859C119.195 12.2344 119.102 10.8359 119.102 9.89062C119.102 9.0625 118.984 8.41797 118.75 7.95703C118.203 8.20703 117.648 8.61328 117.086 9.17578L115.703 10.7227C115.578 10.9102 115.379 11.1562 115.105 11.4609C115.105 11.9297 115.062 12.6211 114.977 13.5352C114.891 14.4492 114.848 15.125 114.848 15.5625C114.848 15.7969 114.883 16.125 114.953 16.5469C115.031 16.9688 115.07 17.2734 115.07 17.4609C115.07 17.7812 114.949 18.0508 114.707 18.2695C114.473 18.4883 114.195 18.5977 113.875 18.5977C112.992 18.5977 112.551 17.5938 112.551 15.5859C112.551 15.1172 112.594 14.418 112.68 13.4883C112.766 12.5586 112.809 11.8594 112.809 11.3906C112.809 10.9766 112.77 10.3555 112.691 9.52734C112.621 8.69922 112.586 8.07422 112.586 7.65234C112.586 5.87891 112.984 4.99219 113.781 4.99219C114.086 4.99219 114.363 5.125 114.613 5.39062C114.871 5.65625 115 5.94531 115 6.25781C115 6.40625 114.98 6.63672 114.941 6.94922C114.902 7.26172 114.883 7.5 114.883 7.66406L114.906 8.89453C115.312 8.05859 115.91 7.30469 116.699 6.63281C117.488 5.95312 118.16 5.61328 118.715 5.61328C119.941 5.61328 120.785 6.22266 121.246 7.44141C121.676 6.87109 122.188 6.44531 122.781 6.16406C123.375 5.875 124.055 5.73047 124.82 5.73047C126.125 5.73047 127.016 6.43359 127.492 7.83984C127.586 8.12109 127.746 9.21875 127.973 11.1328C128.191 12.4766 128.473 14.7148 128.816 17.8477C128.84 18.1602 128.734 18.4258 128.5 18.6445C128.266 18.8633 127.98 18.9727 127.645 18.9727ZM141.637 7.54688L137.582 16.3125C136.582 18.4453 135.816 20.2305 135.285 21.668L134.512 23.9414C134.309 24.5039 133.957 24.7852 133.457 24.7852C133.129 24.7852 132.844 24.6758 132.602 24.457C132.367 24.2461 132.25 23.9805 132.25 23.6602C132.25 22.8789 133.094 20.6172 134.781 16.875L130.586 8.80078L130.059 7.94531C129.848 7.58594 129.742 7.28516 129.742 7.04297C129.742 6.72266 129.863 6.44141 130.105 6.19922C130.355 5.95703 130.633 5.83594 130.938 5.83594C131.297 5.83594 131.574 5.97266 131.77 6.24609C133.098 8.08984 134.523 10.7148 136.047 14.1211L137.781 10.0781C138.406 8.67969 139.008 7.47656 139.586 6.46875C139.836 6.03125 140.164 5.8125 140.57 5.8125C140.891 5.8125 141.172 5.92578 141.414 6.15234C141.664 6.37891 141.789 6.64844 141.789 6.96094C141.789 7.13281 141.738 7.32812 141.637 7.54688Z" fill="currentColor"/>
</svg>
